<?xml version="1.0" encoding="UTF-8" standalone="no"?>
<svg
   width="31.998899"
   height="32"
   viewBox="0 0 31.998899 32"
   fill="none"
   version="1.1"
   id="svg4"
   sodipodi:docname="logo cut.svg"
   inkscape:version="1.2.1 (9c6d41e410, 2022-07-14)"
   xmlns:inkscape="http://www.inkscape.org/namespaces/inkscape"
   xmlns:sodipodi="http://sodipodi.sourceforge.net/DTD/sodipodi-0.dtd"
   xmlns="http://www.w3.org/2000/svg"
   xmlns:svg="http://www.w3.org/2000/svg">
  <defs
     id="defs8" />
  <sodipodi:namedview
     id="namedview6"
     pagecolor="#ffffff"
     bordercolor="#666666"
     borderopacity="1.0"
     inkscape:showpageshadow="2"
     inkscape:pageopacity="0.0"
     inkscape:pagecheckerboard="0"
     inkscape:deskcolor="#d1d1d1"
     showgrid="false"
     inkscape:zoom="7.375"
     inkscape:cx="72"
     inkscape:cy="16"
     inkscape:window-width="1920"
     inkscape:window-height="1094"
     inkscape:window-x="-11"
     inkscape:window-y="302"
     inkscape:window-maximized="1"
     inkscape:current-layer="svg4" />
  <path
     d="m 19.5908,11.8342 c 0,-1.8175 1.2297,-3.5844 1.9026,-3.24847 0.7645,0.38331 -0.5728,2.09637 -1.9026,3.24847 z m -8.3779,0.6643 c 0,-1.4622 1.4439,-4.24332 2.3268,-3.95045 1.0412,0.3467 -0.8635,3.15155 -2.3268,3.95045 z M 9.75074,22.9588 C 9.08641,22.989 8.64388,22.5637 8.64388,21.8552 c 0,-1.9058 2.64122,-3.7244 4.63632,-4.701 -0.3542,2.6595 -1.2522,5.7002 -3.52946,5.8046 z M 21.9392,16.7537 c -1.5053,0 -2.6595,1.109 -2.6595,2.4377 0,1.109 0.6643,1.9941 1.5515,1.9941 0.3112,0 0.6191,-0.1766 0.6191,-0.5761 0,-0.576 -0.7634,-0.716 -0.7041,-1.5784 0.0376,-0.5685 0.5728,-0.9486 1.1036,-0.9486 1.0638,0 1.5612,1.0304 1.5612,2.0942 -0.0452,1.6398 -1.2511,2.7811 -2.6691,2.7811 -1.8617,0 -3.0568,-1.7733 -3.0568,-3.6802 0,-2.836 1.8605,-3.944 2.835,-4.2099 0.0096,0 2.5496,0.4533 2.4699,-0.6665 -0.0344,-0.491 -0.7666,-0.6794 -1.2974,-0.702 -0.589,-0.0237 -1.1801,0.1884 -1.1801,0.1884 -0.3101,-0.1561 -0.5243,-0.4609 -0.6557,-0.814 1.8164,-1.375 3.102,-2.7036 3.102,-4.21105 0,-0.79785 -0.5319,-1.5074 -1.5515,-1.5074 -1.8165,0 -3.1914,2.30417 -3.1914,4.38765 0,0.3542 0,0.7095 0.0893,1.0196 -1.152,0.842 -2.0091,1.3642 -3.5607,2.2956 0,-0.1949 0.041,-0.6934 0.1712,-1.3438 0.5319,-0.576 1.262,-1.4385 1.262,-2.1039 0,-0.3101 -0.1766,-0.576 -0.5319,-0.576 -0.8862,0 -1.5505,1.3287 -1.7282,2.26 -0.3994,0.4878 -1.1962,1.109 -1.8616,1.109 -0.5319,0 -0.7085,-0.4888 -0.7537,-0.6654 1.685,-0.5771 3.7674,-2.8813 3.7674,-4.96472 0,-0.44361 -0.1776,-1.41911 -1.5063,-1.41911 -1.9952,0 -3.67915,2.96963 -3.67915,5.27483 -0.70955,0 -0.97443,-0.7537 -0.97443,-1.3297 0,-0.5761 0.22181,-1.1532 0.22181,-1.32979 0,-0.17658 -0.08937,-0.39946 -0.35532,-0.39946 -0.66541,0 -1.06379,0.88615 -1.06379,1.90575 0.04522,1.4181 0.9755,2.3053 2.21695,2.3936 0.17763,0.842 0.93133,1.6398 1.86163,1.6398 0.5771,0 1.2856,-0.1766 1.7734,-0.6202 -0.0453,0.3112 -0.0883,0.5761 -0.1335,0.842 -1.95,1.0197 -3.368,1.7292 -4.65361,2.8802 -1.01857,0.9314 -1.5957,2.1718 -1.5957,3.1484 0,1.3297 0.842,2.569 2.57012,2.569 2.03929,0 3.58979,-1.6388 4.34349,-3.8999 0.3553,-1.0638 0.4974,-2.611 0.5857,-4.0301 2.0393,-1.1521 3.0062,-1.8197 4.0679,-2.5734 0.1335,0.2218 0.2681,0.3995 0.4436,0.5319 -0.9303,0.4878 -3.1462,1.8617 -3.1462,5.0961 0,2.3053 1.5515,4.8754 4.6094,4.8754 2.526,0 4.2552,-2.0813 4.2552,-4.0764 0,-1.8175 -1.0197,-3.5015 -2.9707,-3.5015 z m 7.6199,3.8062 c -0.0076,0.014 -0.0334,0.0344 -0.0819,0.0172 -0.0376,-0.014 -0.0495,-0.0334 -0.0484,-0.057 0.0022,-0.0259 0.5362,-1.6022 0.533,-3.4122 -0.0065,-1.951 -0.799,-3.1472 -1.8164,-3.1472 -0.6213,0 -1.0638,0.4436 -1.0638,1.1079 0,1.1973 1.4621,1.2856 1.4621,3.901 0,1.0638 -0.2218,2.0813 -0.576,3.1914 -1.6398,5.5397 -6.8705,8.1098 -11.9666,8.1098 -2.3494,0 -4.0194,-0.4824 -4.5168,-0.7053 -0.0205,-0.0096 -0.0367,-0.0495 -0.0216,-0.0882 0.0119,-0.0313 0.0463,-0.0539 0.0646,-0.0453 0.2024,0.0797 1.6356,0.5298 3.4078,0.5298 1.95,0 3.1031,-0.7968 3.1031,-1.7745 0,-0.6191 -0.4877,-1.1068 -1.109,-1.1068 -1.1962,0 -1.2856,1.5063 -3.8557,1.5063 -1.108,0 -2.0824,-0.2207 -3.23555,-0.576 -5.49556,-1.684 -8.11521,-6.8706 -8.1109,-12.0119 0.00216,-2.5033 0.7031,-4.4974 0.71494,-4.5168 0.00861,-0.0129 0.03984,-0.0269 0.0786,-0.0129 0.03984,0.0129 0.05061,0.0474 0.0463,0.057 -0.0646,0.2079 -0.52974,1.6367 -0.52974,3.4089 0,1.951 0.79784,3.1031 1.81642,3.1031 0.57604,0 1.06379,-0.4436 1.06379,-1.0627 0,-1.1973 -1.46218,-1.3297 -1.46218,-3.9009 0,-1.1091 0.22181,-2.0835 0.57604,-3.23557 1.68399,-5.49556 6.86948,-8.07214 11.96768,-8.1109 2.3688,-0.0183 4.4426,0.69017 4.5201,0.75262 0.014,0.01185 0.029,0.04307 0.014,0.07968 -0.0162,0.04092 -0.0442,0.0463 -0.0582,0.04415 -0.0247,-0.00323 -1.3728,-0.56636 -3.4132,-0.56636 -1.9047,0 -3.1009,0.79677 -3.1009,1.8175 0,0.57604 0.4425,1.06272 1.1069,1.06272 1.1973,0 1.2866,-1.46218 3.8557,-1.46218 1.109,0 2.0823,0.2218 3.2355,0.57604 5.5419,1.68398 8.0635,6.9147 8.1109,11.9666 0.0248,2.5884 -0.7052,4.5481 -0.7117,4.561 z M 16.0011,0.751548 c -8.42102,0 -15.248476,6.826382 -15.248476,15.246252 0,8.42 6.826376,15.2463 15.248476,15.2463 8.422,0 15.2452,-6.8242 15.2452,-15.2463 0,-8.42203 -6.8242,-15.246252 -15.2452,-15.246252 z m 0,31.247352 C 7.18062,31.9989 0,24.8635 0,15.9989 0,7.13432 7.17846,0 15.9989,0 c 8.8205,0 16,7.17954 16,16 0,8.8205 -7.1817,16 -16,16 z"
     fill="#640acd"
     id="path2"
     inkscape:label="path2"
     sodipodi:nodetypes="cccccccscccssscscsscccccssscccsscscsscsssccscccssccccsssccccccssscscccsssscccccsssscccccssssccccssssscssscc" />
</svg>
